<?xml version="1.0" encoding="UTF-8" standalone="no"?>
<!-- Created with Inkscape (http://www.inkscape.org/) -->

<svg
   xmlns:dc="http://purl.org/dc/elements/1.1/"
   xmlns:cc="http://creativecommons.org/ns#"
   xmlns:rdf="http://www.w3.org/1999/02/22-rdf-syntax-ns#"
   xmlns:svg="http://www.w3.org/2000/svg"
   xmlns="http://www.w3.org/2000/svg"
   xmlns:sodipodi="http://sodipodi.sourceforge.net/DTD/sodipodi-0.dtd"
   xmlns:inkscape="http://www.inkscape.org/namespaces/inkscape"
   width="55.467999mm"
   height="54.40971mm"
   viewBox="0 0 55.467998 54.40971"
   version="1.1"
   id="svg1116"
   inkscape:version="0.92.4 (5da689c313, 2019-01-14)"
   sodipodi:docname="logo.svg">
  <defs
     id="defs1110" />
  <sodipodi:namedview
     id="base"
     pagecolor="#ffffff"
     bordercolor="#666666"
     borderopacity="1.0"
     inkscape:pageopacity="0.0"
     inkscape:pageshadow="2"
     inkscape:zoom="2.8"
     inkscape:cx="84.447902"
     inkscape:cy="109.42625"
     inkscape:document-units="mm"
     inkscape:current-layer="layer1"
     showgrid="false"
     fit-margin-top="0"
     fit-margin-left="0"
     fit-margin-right="0"
     fit-margin-bottom="0"
     inkscape:window-width="1920"
     inkscape:window-height="1016"
     inkscape:window-x="0"
     inkscape:window-y="27"
     inkscape:window-maximized="1" />
  <metadata
     id="metadata1113">
    <rdf:RDF>
      <cc:Work
         rdf:about="">
        <dc:format>image/svg+xml</dc:format>
        <dc:type
           rdf:resource="http://purl.org/dc/dcmitype/StillImage" />
        <dc:title></dc:title>
      </cc:Work>
    </rdf:RDF>
  </metadata>
  <g
     inkscape:label="Layer 1"
     inkscape:groupmode="layer"
     id="layer1"
     transform="translate(422.87031,159.58581)">
    <path
       sodipodi:nodetypes="cc"
       inkscape:connector-curvature="0"
       id="path1705"
       d="M -420.54576,-110.27877 H -378.795"
       style="font-style:normal;font-weight:normal;font-size:10.58333302px;line-height:1.25;font-family:sans-serif;letter-spacing:0px;word-spacing:0px;fill:none;fill-opacity:1;stroke:#ffffff;stroke-width:0.25469726px;stroke-linecap:butt;stroke-linejoin:miter;stroke-opacity:1" />
    <path
       sodipodi:nodetypes="ccccc"
       inkscape:connector-curvature="0"
       id="path919-3"
       d="m -422.87031,-159.58581 h 55.468 v 54.40971 h -55.468 z"
       style="opacity:1;vector-effect:none;fill:#333333;fill-opacity:1;stroke:none;stroke-width:10;stroke-linecap:butt;stroke-linejoin:miter;stroke-miterlimit:4;stroke-dasharray:none;stroke-dashoffset:0;stroke-opacity:1" />
    <path
       inkscape:connector-curvature="0"
       id="path1692"
       style="font-style:normal;font-variant:normal;font-weight:300;font-stretch:normal;font-size:10.58333302px;line-height:1.25;font-family:Merriweather;-inkscape-font-specification:'Merriweather, Light';font-variant-ligatures:normal;font-variant-caps:normal;font-variant-numeric:normal;font-feature-settings:normal;text-align:start;letter-spacing:0px;word-spacing:0px;writing-mode:lr-tb;text-anchor:start;fill:#ffffff;fill-opacity:1;stroke:none;stroke-width:0.25469726"
       d="m -396.4977,-112.09532 -0.84343,0.0953 v 0.45509 h 1.25533 c 0.56882,0 1.12783,0.0741 1.59858,0.0847 2.1772,0.0529 3.71693,-1.66158 3.71693,-4.2545 0,-2.26483 -1.04937,-3.77825 -3.58944,-3.77825 -0.58844,0 -1.13763,0.0847 -1.73588,0.0847 h -1.18667 v 0.45508 l 0.78458,0.11642 z m 0.80419,0.0318 v -6.858 c 0.2746,-0.0106 0.63747,-0.0635 1.0788,-0.0635 1.99086,0 2.98139,1.15359 2.98139,3.46075 0,2.29659 -1.15725,3.52425 -2.73622,3.54542 -0.45113,0.0106 -0.85323,0.0106 -1.32397,-0.0847 z" />
    <path
       inkscape:connector-curvature="0"
       id="path1694"
       style="font-style:normal;font-variant:normal;font-weight:300;font-stretch:normal;font-size:10.58333302px;line-height:1.25;font-family:Merriweather;-inkscape-font-specification:'Merriweather, Light';font-variant-ligatures:normal;font-variant-caps:normal;font-variant-numeric:normal;font-feature-settings:normal;text-align:start;letter-spacing:0px;word-spacing:0px;writing-mode:lr-tb;text-anchor:start;fill:#ffffff;fill-opacity:1;stroke:none;stroke-width:0.25469726"
       d="m -389.37904,-118.52998 h 0.01 c 0.40209,0 0.62765,-0.26459 0.62765,-0.6985 0,-0.29634 -0.11768,-0.60325 -0.54919,-0.60325 -0.3923,0 -0.61786,0.29633 -0.61786,0.6985 0,0.32808 0.12749,0.60325 0.52959,0.60325 z m -0.31383,6.44525 -0.86303,0.0847 v 0.45509 h 2.51064 v -0.45509 l -0.85323,-0.0741 v -5.30225 l -0.19614,-0.16933 h -0.0197 l -1.34359,0.16933 v 0.47625 l 0.76496,0.17992 z" />
    <path
       inkscape:connector-curvature="0"
       id="path1696"
       style="font-style:normal;font-variant:normal;font-weight:300;font-stretch:normal;font-size:10.58333302px;line-height:1.25;font-family:Merriweather;-inkscape-font-specification:'Merriweather, Light';font-variant-ligatures:normal;font-variant-caps:normal;font-variant-numeric:normal;font-feature-settings:normal;text-align:start;letter-spacing:0px;word-spacing:0px;writing-mode:lr-tb;text-anchor:start;fill:#ffffff;fill-opacity:1;stroke:none;stroke-width:0.25469726"
       d="m -387.62095,-112.08473 -0.65709,0.0847 v 0.45509 h 2.1674 v -0.45509 l -0.71592,-0.0847 v -4.10634 c 0.40209,-0.33866 1.07879,-0.70908 1.6378,-0.70908 0.95131,0 1.10822,0.59267 1.10822,1.82033 v 3.00567 l -0.65708,0.0741 v 0.45509 h 2.18701 v -0.45509 l -0.73555,-0.0741 v -2.99508 c 0,-1.70392 -0.29421,-2.48709 -1.56915,-2.48709 -0.73554,0 -1.63781,0.508 -2.06933,0.91017 l 0.01,-0.26458 v -0.46567 l -0.18634,-0.16933 h -0.0294 l -1.24551,0.16933 v 0.47625 l 0.75516,0.17992 z" />
    <path
       inkscape:connector-curvature="0"
       id="path1698"
       style="font-style:normal;font-variant:normal;font-weight:300;font-stretch:normal;font-size:10.58333302px;line-height:1.25;font-family:Merriweather;-inkscape-font-specification:'Merriweather, Light';font-variant-ligatures:normal;font-variant-caps:normal;font-variant-numeric:normal;font-feature-settings:normal;text-align:start;letter-spacing:0px;word-spacing:0px;writing-mode:lr-tb;text-anchor:start;fill:#ffffff;fill-opacity:1;stroke:none;stroke-width:0.25469726"
       d="m -382.31326,-112.08473 -0.64727,0.0847 v 0.45509 h 2.19682 v -0.45509 l -0.76497,-0.0847 v -0.81492 l -0.0196,-0.4445 1.10822,-1.24883 1.53973,2.50825 -0.6767,0.0847 v 0.45509 h 2.24586 v -0.45509 l -0.64728,-0.0741 -1.95164,-2.99508 1.55935,-1.778 0.75516,-0.14817 v -0.42333 h -2.31451 v 0.42333 l 0.76496,0.14817 -2.38315,2.78341 0.0196,-0.66675 v -5.34458 l -0.18633,-0.13758 h -0.01 l -1.39263,0.17991 v 0.39159 l 0.80419,0.0952 z" />
    <path
       inkscape:connector-curvature="0"
       id="path1700"
       style="font-style:normal;font-variant:normal;font-weight:300;font-stretch:normal;font-size:10.58333302px;line-height:1.25;font-family:Merriweather;-inkscape-font-specification:'Merriweather, Light';font-variant-ligatures:normal;font-variant-caps:normal;font-variant-numeric:normal;font-feature-settings:normal;text-align:start;letter-spacing:0px;word-spacing:0px;writing-mode:lr-tb;text-anchor:start;fill:#ffffff;fill-opacity:1;stroke:none;stroke-width:0.25469726"
       d="m -376.52424,-108.90973 c 1.13764,0 1.53974,-0.83609 2.14778,-2.46592 0.16673,-0.41275 0.53941,-1.61925 1.70646,-5.48217 l 0.50998,-0.127 v -0.43391 h -1.88299 v 0.43391 l 0.68651,0.127 -0.92188,3.22792 -0.49036,1.73567 -0.50998,-1.72509 -1.02975,-3.2385 0.79438,-0.127 v -0.43391 h -2.1674 v 0.43391 l 0.46094,0.13759 1.87318,5.30225 h 0.43152 c -0.5394,1.62983 -1.06899,1.8415 -1.58877,1.8415 -0.17653,0 -0.42171,-0.0212 -0.50017,-0.0635 v 0.78316 c 0.0785,0.0423 0.30402,0.0741 0.48055,0.0741 z" />
    <path
       inkscape:connector-curvature="0"
       id="path1702"
       style="font-style:normal;font-variant:normal;font-weight:normal;font-stretch:normal;font-size:10.58333302px;line-height:1.25;font-family:Merriweather;-inkscape-font-specification:'Merriweather, Normal';font-variant-ligatures:normal;font-variant-caps:normal;font-variant-numeric:normal;font-feature-settings:normal;text-align:start;letter-spacing:0px;word-spacing:0px;writing-mode:lr-tb;text-anchor:start;fill:#ffffff;fill-opacity:1;stroke:none;stroke-width:0.25469726"
       d="m -372.3246,-111.43915 c 0.39228,0 0.73554,-0.29633 0.73554,-0.77258 0,-0.34925 -0.20595,-0.67734 -0.62767,-0.67734 -0.38248,0 -0.73554,0.32809 -0.73554,0.77259 0,0.41275 0.29421,0.67733 0.62767,0.67733 z" />
  </g>
</svg>
